<?xml version="1.0" ?><svg width="5rem" height="5rem" fill="white" viewBox="0 0 56 56" id="Layer_1" style="enable-background:new 0 0 56 56;" version="1.1" xml:space="preserve" xmlns="http://www.w3.org/2000/svg" xmlns:xlink="http://www.w3.org/1999/xlink"><g><path d="M44.7,25.2c1.8-4.8,2.7-11.7-3.6-16.7c-0.9-1-11.1-11-26.2-1.5c-1.6,1-2.8,2.5-3.3,4.2c-0.9,2.9-1.8,8-0.2,13.8   c-4.3,6.5,1.4,13.7,2.7,15.2c0,0,0,0,0,0.1c4,8.4,8.6,12.6,13.8,12.6c0.4,0,0.8,0,1.3-0.1C35.9,52,40.9,44.1,41.5,41   c0-0.2,0-0.3,0-0.4C44.4,37.5,48.4,30.8,44.7,25.2z M13.5,11.9c0.4-1.3,1.3-2.4,2.5-3.1c14.3-9,23.3,0.7,23.7,1.2   c0,0,0.1,0.1,0.1,0.1c5.6,4.4,4.7,10.5,3,14.7c-0.1,0.1-0.1,0.3-0.2,0.4c-0.3,0.8-0.7,1.5-1,2.1c-0.8-5.9-1.7-9.7-2.9-11.6   c-0.4-0.6-1-1-1.7-1.2c-0.2,0-0.4-0.1-0.6-0.1c-0.5,0-1.1,0.2-1.6,0.5c-1.2,0.8-3.1,1.4-5.7,1.6c-1.6,0.2-2.9,0.2-4.1,0   c-2.6-0.4-4.8,0.1-6.6,1.6c-2.7,2.2-3.9,6-4.4,8.7C11.6,20.5,12.5,14.9,13.5,11.9z M12.3,27.7c0.4,1,0.9,2,1.5,3.1   c0.2,0.4,0.7,0.6,1.1,0.5c0.4-0.1,0.7-0.5,0.8-0.9c0-0.1,0.3-7.6,4.1-10.7c1.4-1.1,3-1.5,5-1.2c1.4,0.2,2.9,0.3,4.7,0.1   c2.9-0.3,5.1-1,6.6-2c0.2-0.1,0.4-0.2,0.6-0.1c0.2,0,0.3,0.1,0.4,0.3c1.2,1.9,2.2,6.5,3,13.7c0,0.4,0.3,0.8,0.7,0.9   c0.1,0,0.2,0,0.3,0c0.3,0,0.6-0.1,0.8-0.4c0,0,1-1.3,1.9-3.4c1.8,4.4-1.6,9.3-3.2,11.1c-3.5-3.8-7.4-5.9-11.5-6.1   c-6.6-0.4-12,4.2-13.9,6C13.8,36.8,10.5,32.2,12.3,27.7z M30,50.7c-6.1,1.7-10.8-4.6-13.7-10.4c0,0,0.1-0.1,0.1-0.1   c1.6-1.5,6.6-6,12.6-5.6c3.7,0.2,7.3,2.2,10.6,6C39.4,42.1,35.6,49.1,30,50.7z"/><path d="M33.9,38.2H22.7c-0.6,0-1,0.4-1,1s0.4,1,1,1h11.2c0.6,0,1-0.4,1-1S34.5,38.2,33.9,38.2z"/><path d="M33.9,41.8H22.7c-0.6,0-1,0.4-1,1s0.4,1,1,1h11.2c0.6,0,1-0.4,1-1S34.5,41.8,33.9,41.8z"/><path d="M33.9,45.4H22.7c-0.6,0-1,0.4-1,1s0.4,1,1,1h11.2c0.6,0,1-0.4,1-1S34.5,45.4,33.9,45.4z"/></g></svg>